<?xml version="1.0" encoding="UTF-8" standalone="no"?>
<svg
   xmlns:dc="http://purl.org/dc/elements/1.1/"
   xmlns:cc="http://creativecommons.org/ns#"
   xmlns:rdf="http://www.w3.org/1999/02/22-rdf-syntax-ns#"
   xmlns:svg="http://www.w3.org/2000/svg"
   xmlns="http://www.w3.org/2000/svg"
   xmlns:sodipodi="http://sodipodi.sourceforge.net/DTD/sodipodi-0.dtd"
   xmlns:inkscape="http://www.inkscape.org/namespaces/inkscape"
   height="30"
   id="Layer_1"
   version="1.1"
   viewBox="0 0 38 30"
   width="38"
   xml:space="preserve"
   inkscape:version="0.48.4 r9939"
   sodipodi:docname="burger.svg"><metadata
     id="metadata9"><rdf:RDF><cc:Work
         rdf:about=""><dc:format>image/svg+xml</dc:format><dc:type
           rdf:resource="http://purl.org/dc/dcmitype/StillImage" /></cc:Work></rdf:RDF></metadata><defs
     id="defs7" /><sodipodi:namedview
     pagecolor="#ffffff"
     bordercolor="#666666"
     borderopacity="1"
     objecttolerance="10"
     gridtolerance="10"
     guidetolerance="10"
     inkscape:pageopacity="0"
     inkscape:pageshadow="2"
     inkscape:window-width="1871"
     inkscape:window-height="1056"
     id="namedview5"
     showgrid="true"
     inkscape:snap-bbox="true"
     fit-margin-top="0"
     fit-margin-left="0"
     fit-margin-right="0"
     fit-margin-bottom="0"
     inkscape:zoom="22.636381"
     inkscape:cx="17.743244"
     inkscape:cy="13.509021"
     inkscape:window-x="49"
     inkscape:window-y="24"
     inkscape:window-maximized="1"
     inkscape:current-layer="Layer_1"><inkscape:grid
       type="xygrid"
       id="grid2986"
       empspacing="5"
       visible="true"
       enabled="true"
       snapvisiblegridlinesonly="true"
       originx="3px"
       originy="-1px" /></sodipodi:namedview><path
     style="font-size:medium;font-style:normal;font-variant:normal;font-weight:normal;font-stretch:normal;text-indent:0;text-align:start;text-decoration:none;line-height:normal;letter-spacing:normal;word-spacing:normal;text-transform:none;direction:ltr;block-progression:tb;writing-mode:lr-tb;text-anchor:start;baseline-shift:baseline;color:#000000;fill:#888a85;fill-opacity:1;stroke:none;stroke-width:1.02731085;marker:none;visibility:visible;display:inline;overflow:visible;enable-background:accumulate;font-family:Sans;-inkscape-font-specification:Sans"
     d="M 6,0 C 2.6848849,0 0,2.6848849 0,6 l 0,18 c 0,3.315115 2.6848849,6 6,6 l 26,0 c 3.315115,0 6,-2.684885 6,-6 L 38,6 C 38,2.6848849 35.315115,0 32,0 L 6,0 z m 0,1.03125 26,0 c 2.763754,0 4.96875,2.2049955 4.96875,4.96875 l 0,18 c 0,2.763754 -2.204996,4.96875 -4.96875,4.96875 l -26,0 C 3.2362455,28.96875 1.03125,26.763754 1.03125,24 l 0,-18 C 1.03125,3.2362455 3.2362455,1.03125 6,1.03125 z"
     id="rect2988"
     inkscape:connector-curvature="0" /><path
     inkscape:connector-curvature="0"
     style="fill:#888a85"
     id="path2984"
     d="M 31,21 7,21 c -1.104,0 -1,0.448 -1,1 0,0.552 -0.104,1 1,1 l 24,0 c 1.104,0 1,-0.448 1,-1 0,-0.552 0.104,-1 -1,-1 z"
     sodipodi:nodetypes="sssssss" /><path
     d="M 31,14 7,14 c -1.104,0 -1,0.448 -1,1 0,0.552 -0.104,1 1,1 l 24,0 c 1.104,0 1,-0.448 1,-1 0,-0.552 0.104,-1 -1,-1 z"
     id="path2986"
     style="fill:#888a85"
     inkscape:connector-curvature="0"
     sodipodi:nodetypes="sssssss" /><path
     inkscape:connector-curvature="0"
     style="fill:#888a85"
     id="path2988"
     d="M 7,9 31,9 C 32.104,9 32,8.552 32,8 32,7.448 32.104,7 31,7 L 7,7 C 5.896,7 6,7.448 6,8 6,8.552 5.896,9 7,9 z"
     sodipodi:nodetypes="sssssss" /></svg>